<svg id="Group_4" data-name="Group 4" xmlns="http://www.w3.org/2000/svg" width="26.127" height="28" viewBox="0 0 26.127 28">
  <path id="Path_7" data-name="Path 7" d="M14.269,28.028A14.267,14.267,0,0,1,10.19.09a1.035,1.035,0,0,1,1.2.332,1.023,1.023,0,0,1-.045,1.3A11.772,11.772,0,0,0,9.194,8.975a11.851,11.851,0,0,0,5.5,9.881,11.859,11.859,0,0,0,10.015,1.577,1.028,1.028,0,0,1,1.379.7,1.077,1.077,0,0,1-.236.951,14.3,14.3,0,0,1-11.585,5.942ZM8.192,3.192a12.2,12.2,0,0,0-6.147,11.1,12.411,12.411,0,0,0,8.719,11.183,12.088,12.088,0,0,0,11.5-2.54A14.071,14.071,0,0,1,9.807,16.922C6.788,12.683,6.411,8.043,8.192,3.192Z" transform="translate(0.004 -0.028)" fill="#f79d34"/>
</svg>
